<svg xmlns="http://www.w3.org/2000/svg" width="100" height="100" shape-rendering="crispEdges" viewBox="0 0 2000 2000"><path fill="#fff" d="M0 0h2000v2000H0z"/><path d="M629 173h57v57h-57zM686 173h57v57h-57zM743 173h57v57h-57zM800 173h57v57h-57zM857 173h57v57h-57zM1028 173h57v57h-57zM1199 173h57v57h-57zM1313 173h57v57h-57zM686 230h57v57h-57zM743 230h57v57h-57zM800 230h57v57h-57zM914 230h57v57h-57zM971 230h57v57h-57zM1085 230h57v57h-57zM1199 230h57v57h-57zM629 287h57v57h-57zM800 287h57v57h-57zM857 287h57v57h-57zM914 287h57v57h-57zM971 287h57v57h-57zM1028 287h57v57h-57zM1085 287h57v57h-57zM1142 287h57v57h-57zM1313 287h57v57h-57zM629 344h57v57h-57zM686 344h57v57h-57zM743 344h57v57h-57zM1028 344h57v57h-57zM1199 344h57v57h-57zM1313 344h57v57h-57zM629 401h57v57h-57zM800 401h57v57h-57zM857 401h57v57h-57zM1085 401h57v57h-57zM1142 401h57v57h-57zM1313 401h57v57h-57zM686 458h57v57h-57zM743 458h57v57h-57zM914 458h57v57h-57zM971 458h57v57h-57zM1142 458h57v57h-57zM1199 458h57v57h-57zM629 515h57v57h-57zM743 515h57v57h-57zM857 515h57v57h-57zM971 515h57v57h-57zM1085 515h57v57h-57zM1199 515h57v57h-57zM1313 515h57v57h-57zM686 572h57v57h-57zM857 572h57v57h-57zM914 572h57v57h-57zM1028 572h57v57h-57zM1142 572h57v57h-57zM1199 572h57v57h-57zM1256 572h57v57h-57zM173 629h57v57h-57zM230 629h57v57h-57zM287 629h57v57h-57zM344 629h57v57h-57zM515 629h57v57h-57zM629 629h57v57h-57zM686 629h57v57h-57zM971 629h57v57h-57zM1199 629h57v57h-57zM1256 629h57v57h-57zM1313 629h57v57h-57zM1370 629h57v57h-57zM1541 629h57v57h-57zM1598 629h57v57h-57zM1655 629h57v57h-57zM1769 629h57v57h-57zM287 686h57v57h-57zM458 686h57v57h-57zM686 686h57v57h-57zM743 686h57v57h-57zM800 686h57v57h-57zM857 686h57v57h-57zM971 686h57v57h-57zM1256 686h57v57h-57zM1313 686h57v57h-57zM1427 686h57v57h-57zM1541 686h57v57h-57zM1598 686h57v57h-57zM1712 686h57v57h-57zM344 743h57v57h-57zM401 743h57v57h-57zM458 743h57v57h-57zM515 743h57v57h-57zM572 743h57v57h-57zM629 743h57v57h-57zM914 743h57v57h-57zM1085 743h57v57h-57zM1199 743h57v57h-57zM1313 743h57v57h-57zM1370 743h57v57h-57zM1484 743h57v57h-57zM1541 743h57v57h-57zM1598 743h57v57h-57zM1712 743h57v57h-57zM173 800h57v57h-57zM230 800h57v57h-57zM458 800h57v57h-57zM629 800h57v57h-57zM743 800h57v57h-57zM800 800h57v57h-57zM857 800h57v57h-57zM914 800h57v57h-57zM1313 800h57v57h-57zM1484 800h57v57h-57zM1712 800h57v57h-57zM230 857h57v57h-57zM344 857h57v57h-57zM458 857h57v57h-57zM515 857h57v57h-57zM686 857h57v57h-57zM914 857h57v57h-57zM971 857h57v57h-57zM1028 857h57v57h-57zM1142 857h57v57h-57zM1199 857h57v57h-57zM1370 857h57v57h-57zM1427 857h57v57h-57zM1484 857h57v57h-57zM1541 857h57v57h-57zM173 914h57v57h-57zM230 914h57v57h-57zM401 914h57v57h-57zM629 914h57v57h-57zM857 914h57v57h-57zM971 914h57v57h-57zM1085 914h57v57h-57zM1142 914h57v57h-57zM1256 914h57v57h-57zM1484 914h57v57h-57zM1541 914h57v57h-57zM1598 914h57v57h-57zM1655 914h57v57h-57zM287 971h57v57h-57zM344 971h57v57h-57zM515 971h57v57h-57zM572 971h57v57h-57zM686 971h57v57h-57zM743 971h57v57h-57zM800 971h57v57h-57zM971 971h57v57h-57zM1142 971h57v57h-57zM1370 971h57v57h-57zM1427 971h57v57h-57zM1541 971h57v57h-57zM1655 971h57v57h-57zM230 1028h57v57h-57zM287 1028h57v57h-57zM401 1028h57v57h-57zM572 1028h57v57h-57zM629 1028h57v57h-57zM743 1028h57v57h-57zM800 1028h57v57h-57zM914 1028h57v57h-57zM1028 1028h57v57h-57zM1085 1028h57v57h-57zM1142 1028h57v57h-57zM1199 1028h57v57h-57zM1256 1028h57v57h-57zM1370 1028h57v57h-57zM1427 1028h57v57h-57zM1484 1028h57v57h-57zM1541 1028h57v57h-57zM1712 1028h57v57h-57zM1769 1028h57v57h-57zM230 1085h57v57h-57zM344 1085h57v57h-57zM458 1085h57v57h-57zM515 1085h57v57h-57zM629 1085h57v57h-57zM686 1085h57v57h-57zM800 1085h57v57h-57zM971 1085h57v57h-57zM1085 1085h57v57h-57zM1199 1085h57v57h-57zM1541 1085h57v57h-57zM1655 1085h57v57h-57zM1712 1085h57v57h-57zM230 1142h57v57h-57zM401 1142h57v57h-57zM458 1142h57v57h-57zM572 1142h57v57h-57zM800 1142h57v57h-57zM914 1142h57v57h-57zM971 1142h57v57h-57zM1085 1142h57v57h-57zM1256 1142h57v57h-57zM1313 1142h57v57h-57zM1370 1142h57v57h-57zM1427 1142h57v57h-57zM1712 1142h57v57h-57zM173 1199h57v57h-57zM287 1199h57v57h-57zM344 1199h57v57h-57zM458 1199h57v57h-57zM515 1199h57v57h-57zM572 1199h57v57h-57zM629 1199h57v57h-57zM686 1199h57v57h-57zM743 1199h57v57h-57zM914 1199h57v57h-57zM971 1199h57v57h-57zM1028 1199h57v57h-57zM1142 1199h57v57h-57zM1484 1199h57v57h-57zM1598 1199h57v57h-57zM1655 1199h57v57h-57zM1712 1199h57v57h-57zM401 1256h57v57h-57zM458 1256h57v57h-57zM629 1256h57v57h-57zM743 1256h57v57h-57zM857 1256h57v57h-57zM914 1256h57v57h-57zM971 1256h57v57h-57zM1085 1256h57v57h-57zM1256 1256h57v57h-57zM1427 1256h57v57h-57zM1655 1256h57v57h-57zM1712 1256h57v57h-57zM1769 1256h57v57h-57zM230 1313h57v57h-57zM344 1313h57v57h-57zM401 1313h57v57h-57zM458 1313h57v57h-57zM515 1313h57v57h-57zM572 1313h57v57h-57zM686 1313h57v57h-57zM971 1313h57v57h-57zM1085 1313h57v57h-57zM1256 1313h57v57h-57zM1313 1313h57v57h-57zM1370 1313h57v57h-57zM1427 1313h57v57h-57zM1484 1313h57v57h-57zM1541 1313h57v57h-57zM1655 1313h57v57h-57zM1769 1313h57v57h-57zM629 1370h57v57h-57zM857 1370h57v57h-57zM1028 1370h57v57h-57zM1085 1370h57v57h-57zM1313 1370h57v57h-57zM1541 1370h57v57h-57zM1712 1370h57v57h-57zM686 1427h57v57h-57zM800 1427h57v57h-57zM857 1427h57v57h-57zM914 1427h57v57h-57zM1085 1427h57v57h-57zM1199 1427h57v57h-57zM1313 1427h57v57h-57zM1427 1427h57v57h-57zM1541 1427h57v57h-57zM1598 1427h57v57h-57zM1712 1427h57v57h-57zM743 1484h57v57h-57zM800 1484h57v57h-57zM857 1484h57v57h-57zM914 1484h57v57h-57zM1142 1484h57v57h-57zM1256 1484h57v57h-57zM1313 1484h57v57h-57zM1541 1484h57v57h-57zM1598 1484h57v57h-57zM1655 1484h57v57h-57zM743 1541h57v57h-57zM1028 1541h57v57h-57zM1085 1541h57v57h-57zM1142 1541h57v57h-57zM1256 1541h57v57h-57zM1313 1541h57v57h-57zM1370 1541h57v57h-57zM1427 1541h57v57h-57zM1484 1541h57v57h-57zM1541 1541h57v57h-57zM1655 1541h57v57h-57zM1712 1541h57v57h-57zM1769 1541h57v57h-57zM629 1598h57v57h-57zM857 1598h57v57h-57zM1028 1598h57v57h-57zM1142 1598h57v57h-57zM1199 1598h57v57h-57zM1370 1598h57v57h-57zM1427 1598h57v57h-57zM1541 1598h57v57h-57zM1655 1598h57v57h-57zM1712 1598h57v57h-57zM629 1655h57v57h-57zM686 1655h57v57h-57zM743 1655h57v57h-57zM800 1655h57v57h-57zM857 1655h57v57h-57zM971 1655h57v57h-57zM1142 1655h57v57h-57zM1484 1655h57v57h-57zM1541 1655h57v57h-57zM1598 1655h57v57h-57zM1655 1655h57v57h-57zM1769 1655h57v57h-57zM629 1712h57v57h-57zM686 1712h57v57h-57zM743 1712h57v57h-57zM914 1712h57v57h-57zM1028 1712h57v57h-57zM1085 1712h57v57h-57zM1142 1712h57v57h-57zM1199 1712h57v57h-57zM1256 1712h57v57h-57zM1313 1712h57v57h-57zM1598 1712h57v57h-57zM1655 1712h57v57h-57zM1769 1712h57v57h-57zM629 1769h57v57h-57zM800 1769h57v57h-57zM1085 1769h57v57h-57zM1199 1769h57v57h-57zM1256 1769h57v57h-57zM1313 1769h57v57h-57zM1427 1769h57v57h-57zM1484 1769h57v57h-57zM1598 1769h57v57h-57zM1712 1769h57v57h-57z"/><svg xml:space="preserve" width="399" height="399" x="173" y="173" shape-rendering="auto" viewBox="0 0 699.988 699.986"><path d="M600.99 0H1V699.986h699.988V0H600.99zm0 199.996v399.992H100.999V99.998H600.99v99.998z"/></svg><svg xml:space="preserve" width="399" height="399" x="173" y="173" shape-rendering="auto" version="1.0" viewBox="0 0 699.988 699.988"><path d="M399.994 199.997H199.998v299.994H499.99V199.997z"/></svg><svg xml:space="preserve" width="399" height="399" x="1427" y="173" shape-rendering="auto" viewBox="0 0 699.988 699.986"><path d="M600.99 0H1V699.986h699.988V0H600.99zm0 199.996v399.992H100.999V99.998H600.99v99.998z"/></svg><svg xml:space="preserve" width="399" height="399" x="1427" y="173" shape-rendering="auto" version="1.0" viewBox="0 0 699.988 699.988"><path d="M399.994 199.997H199.998v299.994H499.99V199.997z"/></svg><svg xml:space="preserve" width="399" height="399" x="173" y="1427" shape-rendering="auto" viewBox="0 0 699.988 699.986"><path d="M600.99 0H1V699.986h699.988V0H600.99zm0 199.996v399.992H100.999V99.998H600.99v99.998z"/></svg><svg xml:space="preserve" width="399" height="399" x="173" y="1427" shape-rendering="auto" version="1.0" viewBox="0 0 699.988 699.988"><path d="M399.994 199.997H199.998v299.994H499.99V199.997z"/></svg></svg>